<svg width="37" height="37" viewBox="0 0 37 37" fill="none" xmlns="http://www.w3.org/2000/svg">
<path d="M7.59221 1C4.05199 1 1.20142 3.85057 1.20142 7.39078V29.6092C1.20142 33.1494 4.05199 36 7.59221 36H19.6344V22.3172H16.0163V17.3909H19.6344V13.1822C19.6344 9.87556 21.7722 6.83953 26.6967 6.83953C28.6906 6.83953 30.165 7.03094 30.165 7.03094L30.0491 11.6313C30.0491 11.6313 28.5454 11.6171 26.9045 11.6171C25.1287 11.6171 24.8439 12.4353 24.8439 13.7936V17.391H30.1902L29.9572 22.3172H24.8439V36H29.8106C33.3508 36 36.2014 33.1494 36.2014 29.6092V7.39081C36.2014 3.8506 33.3508 1.00003 29.8106 1.00003H7.59217L7.59221 1Z" stroke="#0A66C2"/>
</svg>
