<svg width="37" height="37" viewBox="0 0 37 37" fill="none" xmlns="http://www.w3.org/2000/svg">
<path d="M33.8098 1.00255H3.98552C2.57595 0.986688 1.42 2.11585 1.40277 3.52542V33.4741C1.41945 34.8843 2.57527 36.0146 3.98539 35.9998H33.8098C35.2229 36.0173 36.3832 34.887 36.4028 33.4741V3.52309C36.3827 2.11079 35.2222 0.981766 33.8098 1.00022M31.2244 30.8221H26.0385V22.7006C26.0385 20.764 26.0039 18.2709 23.3413 18.2709C20.6403 18.2709 20.227 20.3811 20.227 22.5597V30.8216H15.0413V14.1206H20.0196V16.403H20.0894C20.5876 15.5511 21.3075 14.8503 22.1725 14.3752C23.0375 13.9001 24.0152 13.6685 25.0014 13.7051C30.2575 13.7051 31.2266 17.1624 31.2266 21.6602L31.2244 30.8221V30.8221ZM9.18972 11.8378C7.52763 11.8381 6.18 10.4908 6.17972 8.82874C6.17945 7.16665 7.52654 5.81901 9.18863 5.81874C10.8507 5.81833 12.1984 7.16555 12.1986 8.82764C12.1988 9.62581 11.8819 10.3913 11.3176 10.9559C10.7533 11.5204 9.98789 11.8376 9.18972 11.8378V11.8378ZM11.7827 30.8223H6.59138V14.1206H11.7826V30.8221L11.7827 30.8223Z" stroke="#0A66C2"/>
</svg>
