<svg width="226" height="100" viewBox="0 0 226 100" fill="none" xmlns="http://www.w3.org/2000/svg">
<path d="M20.094 83.994C20.538 83.994 21.048 84.036 21.624 84.12C22.2 84.192 22.728 84.276 23.208 84.372L23.172 85.722C21.816 85.458 20.79 85.326 20.094 85.326C19.266 85.326 18.672 85.494 18.312 85.83C17.964 86.154 17.79 86.7 17.79 87.468V92.688C17.79 93.456 17.964 94.014 18.312 94.362C18.672 94.698 19.266 94.866 20.094 94.866C20.634 94.866 21.336 94.782 22.2 94.614V90.636H19.95V89.196H23.73V95.55C22.29 95.994 21.078 96.216 20.094 96.216C18.714 96.216 17.73 95.922 17.142 95.334C16.554 94.746 16.26 93.828 16.26 92.58V87.63C16.26 86.358 16.56 85.434 17.16 84.858C17.76 84.282 18.738 83.994 20.094 83.994ZM32.0044 87C33.0124 87 33.7804 87.276 34.3084 87.828C34.8364 88.38 35.1004 89.178 35.1004 90.222V92.076H30.4744V93.138C30.4744 93.75 30.6184 94.194 30.9064 94.47C31.2064 94.734 31.6744 94.866 32.3104 94.866C32.9344 94.866 33.7144 94.77 34.6504 94.578L34.6864 95.91C33.5704 96.114 32.7724 96.216 32.2924 96.216C31.1044 96.216 30.2464 95.958 29.7184 95.442C29.2024 94.926 28.9444 94.128 28.9444 93.048V90.222C28.9444 89.178 29.1964 88.38 29.7004 87.828C30.2164 87.276 30.9844 87 32.0044 87ZM32.0044 88.278C31.5364 88.278 31.1644 88.428 30.8884 88.728C30.6124 89.016 30.4744 89.436 30.4744 89.988V90.852H33.5704V90.042C33.5704 89.466 33.4264 89.028 33.1384 88.728C32.8624 88.428 32.4844 88.278 32.0044 88.278ZM41.8552 87.216H44.1952V88.476H41.8552V93.624C41.8552 94.08 41.9452 94.41 42.1252 94.614C42.3172 94.806 42.6112 94.902 43.0072 94.902C43.5112 94.902 44.0032 94.842 44.4832 94.722L44.5192 96C43.9912 96.144 43.5112 96.216 43.0792 96.216C42.1192 96.216 41.4172 96.006 40.9732 95.586C40.5412 95.154 40.3252 94.458 40.3252 93.498V88.476H39.0652V87.216H40.3252L40.6132 84.876H41.8552V87.216ZM50.8172 87.216H53.1572V88.476H50.8172V93.624C50.8172 94.08 50.9072 94.41 51.0872 94.614C51.2792 94.806 51.5732 94.902 51.9692 94.902C52.4732 94.902 52.9652 94.842 53.4452 94.722L53.4812 96C52.9532 96.144 52.4732 96.216 52.0412 96.216C51.0812 96.216 50.3792 96.006 49.9352 95.586C49.5032 95.154 49.2872 94.458 49.2872 93.498V88.476H48.0272V87.216H49.2872L49.5752 84.876H50.8172V87.216ZM59.5092 87.216V96H57.9792V87.216H59.5092ZM58.7352 83.67C59.0592 83.67 59.3052 83.742 59.4732 83.886C59.6532 84.03 59.7432 84.234 59.7432 84.498V85.02C59.7432 85.284 59.6532 85.488 59.4732 85.632C59.3052 85.764 59.0592 85.83 58.7352 85.83C58.4232 85.83 58.1772 85.764 57.9972 85.632C57.8292 85.488 57.7452 85.284 57.7452 85.02V84.498C57.7452 84.234 57.8292 84.03 57.9972 83.886C58.1772 83.742 58.4232 83.67 58.7352 83.67ZM68.7362 87C69.5042 87 70.0922 87.264 70.5002 87.792C70.9202 88.308 71.1302 89.046 71.1302 90.006V96H69.6002V90.222C69.6002 89.022 69.2102 88.422 68.4302 88.422C68.0822 88.422 67.7282 88.554 67.3682 88.818C67.0082 89.082 66.6962 89.442 66.4322 89.898V96H64.9022V87.216H66.3422V88.53C66.6662 88.038 67.0262 87.66 67.4222 87.396C67.8302 87.132 68.2682 87 68.7362 87ZM79.4161 87C79.9441 87 80.4241 87.078 80.8561 87.234L83.6641 87.198V88.548L82.1881 88.512C82.3921 88.944 82.4941 89.394 82.4941 89.862V90.258C82.4941 91.134 82.2241 91.842 81.6841 92.382C81.1441 92.91 80.3881 93.174 79.4161 93.174C78.7921 93.174 78.2821 93.114 77.8861 92.994C77.6221 93.21 77.4901 93.456 77.4901 93.732V93.84C77.4901 94.032 77.5501 94.176 77.6701 94.272C77.7901 94.356 78.0241 94.41 78.3721 94.434L81.0541 94.632C81.6061 94.68 82.0501 94.89 82.3861 95.262C82.7341 95.622 82.9081 96.078 82.9081 96.63V97.296C82.9081 97.812 82.8061 98.232 82.6021 98.556C82.3981 98.88 82.0201 99.126 81.4681 99.294C80.9281 99.462 80.1481 99.546 79.1281 99.546C78.7441 99.546 78.2881 99.504 77.7601 99.42C77.2441 99.336 76.7521 99.228 76.2841 99.096L76.3381 97.674C77.4541 98.046 78.4021 98.232 79.1821 98.232C79.8301 98.232 80.3101 98.19 80.6221 98.106C80.9461 98.034 81.1561 97.92 81.2521 97.764C81.3601 97.608 81.4141 97.374 81.4141 97.062V96.918C81.4141 96.642 81.3361 96.426 81.1801 96.27C81.0361 96.114 80.8261 96.03 80.5501 96.018L77.8501 95.838C77.2741 95.802 76.8361 95.64 76.5361 95.352C76.2361 95.064 76.0861 94.674 76.0861 94.182V93.822C76.0861 93.558 76.1521 93.3 76.2841 93.048C76.4281 92.796 76.6321 92.574 76.8961 92.382C76.6921 92.154 76.5421 91.866 76.4461 91.518C76.3621 91.158 76.3201 90.72 76.3201 90.204V89.808C76.3201 88.956 76.5841 88.278 77.1121 87.774C77.6401 87.258 78.4081 87 79.4161 87ZM79.4161 88.278C78.9121 88.278 78.5221 88.41 78.2461 88.674C77.9821 88.926 77.8501 89.292 77.8501 89.772V90.366C77.8501 90.81 77.8861 91.14 77.9581 91.356C78.0421 91.56 78.1861 91.704 78.3901 91.788C78.5941 91.86 78.9001 91.896 79.3081 91.896C79.8601 91.896 80.2741 91.764 80.5501 91.5C80.8261 91.236 80.9641 90.858 80.9641 90.366V89.826C80.9641 89.322 80.8921 88.884 80.7481 88.512C80.6041 88.452 80.4061 88.398 80.1541 88.35C79.9141 88.302 79.6681 88.278 79.4161 88.278ZM101.741 84.21V85.596H98.321V96H96.791V85.596H93.371V84.21H101.741ZM107.958 88.386C108.618 87.462 109.386 87 110.262 87C111.03 87 111.618 87.264 112.026 87.792C112.446 88.308 112.656 89.046 112.656 90.006V96H111.126V90.222C111.126 89.022 110.736 88.422 109.956 88.422C109.608 88.422 109.254 88.554 108.894 88.818C108.534 89.082 108.222 89.442 107.958 89.898V96H106.428V83.706H107.958V88.386ZM119.504 87.216V96H117.974V87.216H119.504ZM118.73 83.67C119.054 83.67 119.3 83.742 119.468 83.886C119.648 84.03 119.738 84.234 119.738 84.498V85.02C119.738 85.284 119.648 85.488 119.468 85.632C119.3 85.764 119.054 85.83 118.73 85.83C118.418 85.83 118.172 85.764 117.992 85.632C117.824 85.488 117.74 85.284 117.74 85.02V84.498C117.74 84.234 117.824 84.03 117.992 83.886C118.172 83.742 118.418 83.67 118.73 83.67ZM128.731 87C129.499 87 130.087 87.264 130.495 87.792C130.915 88.308 131.125 89.046 131.125 90.006V96H129.595V90.222C129.595 89.022 129.205 88.422 128.425 88.422C128.077 88.422 127.723 88.554 127.363 88.818C127.003 89.082 126.691 89.442 126.427 89.898V96H124.897V87.216H126.337V88.53C126.661 88.038 127.021 87.66 127.417 87.396C127.825 87.132 128.263 87 128.731 87ZM139.411 87C139.939 87 140.419 87.078 140.851 87.234L143.659 87.198V88.548L142.183 88.512C142.387 88.944 142.489 89.394 142.489 89.862V90.258C142.489 91.134 142.219 91.842 141.679 92.382C141.139 92.91 140.383 93.174 139.411 93.174C138.787 93.174 138.277 93.114 137.881 92.994C137.617 93.21 137.485 93.456 137.485 93.732V93.84C137.485 94.032 137.545 94.176 137.665 94.272C137.785 94.356 138.019 94.41 138.367 94.434L141.049 94.632C141.601 94.68 142.045 94.89 142.381 95.262C142.729 95.622 142.903 96.078 142.903 96.63V97.296C142.903 97.812 142.801 98.232 142.597 98.556C142.393 98.88 142.015 99.126 141.463 99.294C140.923 99.462 140.143 99.546 139.123 99.546C138.739 99.546 138.283 99.504 137.755 99.42C137.239 99.336 136.747 99.228 136.279 99.096L136.333 97.674C137.449 98.046 138.397 98.232 139.177 98.232C139.825 98.232 140.305 98.19 140.617 98.106C140.941 98.034 141.151 97.92 141.247 97.764C141.355 97.608 141.409 97.374 141.409 97.062V96.918C141.409 96.642 141.331 96.426 141.175 96.27C141.031 96.114 140.821 96.03 140.545 96.018L137.845 95.838C137.269 95.802 136.831 95.64 136.531 95.352C136.231 95.064 136.081 94.674 136.081 94.182V93.822C136.081 93.558 136.147 93.3 136.279 93.048C136.423 92.796 136.627 92.574 136.891 92.382C136.687 92.154 136.537 91.866 136.441 91.518C136.357 91.158 136.315 90.72 136.315 90.204V89.808C136.315 88.956 136.579 88.278 137.107 87.774C137.635 87.258 138.403 87 139.411 87ZM139.411 88.278C138.907 88.278 138.517 88.41 138.241 88.674C137.977 88.926 137.845 89.292 137.845 89.772V90.366C137.845 90.81 137.881 91.14 137.953 91.356C138.037 91.56 138.181 91.704 138.385 91.788C138.589 91.86 138.895 91.896 139.303 91.896C139.855 91.896 140.269 91.764 140.545 91.5C140.821 91.236 140.959 90.858 140.959 90.366V89.826C140.959 89.322 140.887 88.884 140.743 88.512C140.599 88.452 140.401 88.398 140.149 88.35C139.909 88.302 139.663 88.278 139.411 88.278ZM150.615 87C151.119 87 151.725 87.072 152.433 87.216L152.397 88.512C151.773 88.368 151.203 88.296 150.687 88.296C149.607 88.296 149.067 88.644 149.067 89.34V89.502C149.067 89.718 149.121 89.892 149.229 90.024C149.349 90.156 149.559 90.294 149.859 90.438L151.551 91.23C152.571 91.71 153.081 92.412 153.081 93.336V93.732C153.069 94.56 152.817 95.184 152.325 95.604C151.845 96.012 151.083 96.216 150.039 96.216C149.499 96.216 148.725 96.09 147.717 95.838L147.789 94.47C148.689 94.734 149.427 94.866 150.003 94.866C150.591 94.866 150.999 94.788 151.227 94.632C151.455 94.464 151.569 94.194 151.569 93.822V93.642C151.569 93.354 151.509 93.126 151.389 92.958C151.281 92.79 151.095 92.646 150.831 92.526L149.085 91.752C148.557 91.512 148.167 91.224 147.915 90.888C147.675 90.552 147.555 90.162 147.555 89.718V89.466C147.579 88.65 147.831 88.038 148.311 87.63C148.803 87.21 149.571 87 150.615 87ZM167.346 83.994C168.774 83.994 169.872 84.402 170.64 85.218C171.42 86.022 171.81 87.186 171.81 88.71V91.662C171.81 93.126 171.42 94.254 170.64 95.046C169.872 95.826 168.744 96.216 167.256 96.216C166.236 96.216 165.168 96.18 164.052 96.108V84.066C165.132 84.018 166.23 83.994 167.346 83.994ZM167.256 85.29C166.884 85.29 166.326 85.302 165.582 85.326V94.794C166.29 94.866 166.848 94.902 167.256 94.902C168.18 94.902 168.912 94.638 169.452 94.11C170.004 93.57 170.28 92.796 170.28 91.788V88.602C170.28 87.51 170.016 86.688 169.488 86.136C168.96 85.572 168.216 85.29 167.256 85.29ZM180.113 87C181.181 87 181.973 87.288 182.489 87.864C183.017 88.428 183.281 89.232 183.281 90.276V92.94C183.281 93.984 183.017 94.794 182.489 95.37C181.973 95.934 181.181 96.216 180.113 96.216C179.045 96.216 178.247 95.934 177.719 95.37C177.203 94.794 176.945 93.984 176.945 92.94V90.276C176.945 89.232 177.203 88.428 177.719 87.864C178.247 87.288 179.045 87 180.113 87ZM180.113 88.278C179.597 88.278 179.195 88.44 178.907 88.764C178.619 89.088 178.475 89.55 178.475 90.15V93.066C178.475 93.666 178.619 94.128 178.907 94.452C179.195 94.776 179.597 94.938 180.113 94.938C180.629 94.938 181.031 94.776 181.319 94.452C181.607 94.128 181.751 93.666 181.751 93.066V90.132C181.751 89.532 181.607 89.076 181.319 88.764C181.031 88.44 180.629 88.278 180.113 88.278ZM192.329 87C193.097 87 193.685 87.264 194.093 87.792C194.513 88.308 194.723 89.046 194.723 90.006V96H193.193V90.222C193.193 89.022 192.803 88.422 192.023 88.422C191.675 88.422 191.321 88.554 190.961 88.818C190.601 89.082 190.289 89.442 190.025 89.898V96H188.495V87.216H189.935V88.53C190.259 88.038 190.619 87.66 191.015 87.396C191.423 87.132 191.861 87 192.329 87ZM203.009 87C204.017 87 204.785 87.276 205.313 87.828C205.841 88.38 206.105 89.178 206.105 90.222V92.076H201.479V93.138C201.479 93.75 201.623 94.194 201.911 94.47C202.211 94.734 202.679 94.866 203.315 94.866C203.939 94.866 204.719 94.77 205.655 94.578L205.691 95.91C204.575 96.114 203.777 96.216 203.297 96.216C202.109 96.216 201.251 95.958 200.723 95.442C200.207 94.926 199.949 94.128 199.949 93.048V90.222C199.949 89.178 200.201 88.38 200.705 87.828C201.221 87.276 201.989 87 203.009 87ZM203.009 88.278C202.541 88.278 202.169 88.428 201.893 88.728C201.617 89.016 201.479 89.436 201.479 89.988V90.852H204.575V90.042C204.575 89.466 204.431 89.028 204.143 88.728C203.867 88.428 203.489 88.278 203.009 88.278Z" fill="#E6E6E6"/>
<path d="M50.688 22.92L50.2486 23.1585L50.3905 23.42H50.688V22.92ZM45.408 17.832L45.1695 18.2714L45.1769 18.2754L45.1844 18.2792L45.408 17.832ZM24.672 21.288L25.0389 21.6277L25.042 21.6243L24.672 21.288ZM24.864 49.8L24.5006 50.1436L24.5072 50.1502L24.864 49.8ZM48.96 51.912L48.6659 51.5076L48.6615 51.5109L48.96 51.912ZM55.104 43.08L55.5783 43.2381L55.7977 42.58H55.104V43.08ZM34.272 43.08H33.772V43.58H34.272V43.08ZM34.272 30.984V30.484H33.772V30.984H34.272ZM69.984 30.984H70.484V30.484H69.984V30.984ZM69.984 46.248L70.4633 46.3903L70.484 46.3206V46.248H69.984ZM63.744 57.672L63.3604 57.3512L63.357 57.3554L63.744 57.672ZM52.704 66.216L52.4855 65.7662L52.704 66.216ZM19.68 65.16L19.4331 65.5948L19.4395 65.5983L19.68 65.16ZM7.488 52.968L7.0509 53.2108L7.05322 53.2149L7.488 52.968ZM7.488 17.448L7.05192 17.2034L7.05092 17.2052L7.488 17.448ZM19.68 5.256L19.9228 5.69309L19.9269 5.69078L19.68 5.256ZM57.792 6.696L57.5027 7.10383L57.505 7.10539L57.792 6.696ZM68.832 22.92V23.42H69.4782L69.316 22.7945L68.832 22.92ZM51.1274 22.6815C49.862 20.3504 48.0262 18.5821 45.6316 17.3848L45.1844 18.2792C47.3978 19.3859 49.082 21.0096 50.2486 23.1585L51.1274 22.6815ZM45.6465 17.3926C43.3197 16.1294 40.5783 15.508 37.44 15.508V16.508C40.4457 16.508 43.0163 17.1026 45.1695 18.2714L45.6465 17.3926ZM37.44 15.508C32.0054 15.508 27.6084 17.3146 24.302 20.9517L25.042 21.6243C28.1356 18.2214 32.2506 16.508 37.44 16.508V15.508ZM24.3051 20.9483C21.0005 24.5173 19.372 29.2893 19.372 35.208H20.372C20.372 29.4787 21.9435 24.9707 25.0389 21.6277L24.3051 20.9483ZM19.372 35.208C19.372 41.5064 21.0622 46.5067 24.5007 50.1435L25.2273 49.4565C22.0098 46.0533 20.372 41.3256 20.372 35.208H19.372ZM24.5072 50.1502C28.0129 53.7221 32.7928 55.484 38.784 55.484V54.484C32.9992 54.484 28.4991 52.7899 25.2208 49.4498L24.5072 50.1502ZM38.784 55.484C42.904 55.484 46.4058 54.4361 49.2585 52.3131L48.6615 51.5109C46.0102 53.4839 42.728 54.484 38.784 54.484V55.484ZM49.2541 52.3164C52.1675 50.1975 54.2709 47.1604 55.5783 43.2381L54.6297 42.9219C53.3771 46.6796 51.3845 49.5305 48.6659 51.5076L49.2541 52.3164ZM55.104 42.58H34.272V43.58H55.104V42.58ZM34.772 43.08V30.984H33.772V43.08H34.772ZM34.272 31.484H69.984V30.484H34.272V31.484ZM69.484 30.984V46.248H70.484V30.984H69.484ZM69.5047 46.1057C68.3095 50.1316 66.264 53.8796 63.3605 57.3512L64.1275 57.9928C67.112 54.4244 69.2265 50.5564 70.4633 46.3903L69.5047 46.1057ZM63.357 57.3554C60.5271 60.8142 56.9067 63.6189 52.4855 65.7662L52.9225 66.6658C57.4613 64.4612 61.2009 61.5698 64.131 57.9886L63.357 57.3554ZM52.4855 65.7662C48.082 67.9051 43.1023 68.98 37.536 68.98V69.98C43.2337 69.98 48.366 68.8789 52.9225 66.6658L52.4855 65.7662ZM37.536 68.98C30.9545 68.98 25.0869 67.5568 19.9205 64.7217L19.4395 65.5983C24.7691 68.5232 30.8055 69.98 37.536 69.98V68.98ZM19.9269 64.7252C14.8213 61.8258 10.8222 57.8267 7.92278 52.7211L7.05322 53.2149C10.0418 58.4773 14.1707 62.6062 19.4331 65.5948L19.9269 64.7252ZM7.92508 52.7252C5.0912 47.6242 3.668 41.7896 3.668 35.208H2.668C2.668 41.9384 4.1248 47.9438 7.05092 53.2108L7.92508 52.7252ZM3.668 35.208C3.668 28.6264 5.0912 22.7918 7.92508 17.6908L7.05092 17.2052C4.1248 22.4722 2.668 28.4776 2.668 35.208H3.668ZM7.92407 17.6926C10.8234 12.5242 14.8211 8.52738 19.9228 5.69308L19.4372 4.81892C14.1709 7.74462 10.0406 11.8758 7.05193 17.2034L7.92407 17.6926ZM19.9269 5.69078C25.0272 2.79434 30.8603 1.34 37.44 1.34V0.339996C30.7077 0.339996 24.7008 1.82966 19.4331 4.82122L19.9269 5.69078ZM37.44 1.34C45.421 1.34 52.0987 3.27073 57.5027 7.10382L58.0813 6.28817C52.4773 2.31326 45.587 0.339996 37.44 0.339996V1.34ZM57.505 7.10539C62.9705 10.9375 66.5842 16.2423 68.348 23.0455L69.316 22.7945C67.4958 15.7737 63.7495 10.2624 58.0791 6.2866L57.505 7.10539ZM68.832 22.42H50.688V23.42H68.832V22.42ZM139.077 1.608H139.577V1.108H139.077V1.608ZM139.077 14.76V15.26H139.577V14.76H139.077ZM121.221 14.76V14.26H120.721V14.76H121.221ZM121.221 69V69.5H121.721V69H121.221ZM104.805 69H104.305V69.5H104.805V69ZM104.805 14.76H105.305V14.26H104.805V14.76ZM86.949 14.76H86.449V15.26H86.949V14.76ZM86.949 1.608V1.108H86.449V1.608H86.949ZM138.577 1.608V14.76H139.577V1.608H138.577ZM139.077 14.26H121.221V15.26H139.077V14.26ZM120.721 14.76V69H121.721V14.76H120.721ZM121.221 68.5H104.805V69.5H121.221V68.5ZM105.305 69V14.76H104.305V69H105.305ZM104.805 14.26H86.949V15.26H104.805V14.26ZM87.449 14.76V1.608H86.449V14.76H87.449ZM86.949 2.108H139.077V1.108H86.949V2.108ZM202.708 5.832L202.942 5.39023L202.708 5.832ZM214.996 17.736L214.56 17.9812L214.564 17.9876L214.996 17.736ZM214.996 52.872L214.562 52.6228L214.56 52.6269L214.996 52.872ZM202.612 64.776L202.38 64.3331L202.378 64.3342L202.612 64.776ZM158.836 69H158.336V69.5H158.836V69ZM158.836 1.608V1.108H158.336V1.608H158.836ZM175.252 15.624V15.124H174.752V15.624H175.252ZM175.252 54.792H174.752V55.292H175.252V54.792ZM184.084 2.108C191.121 2.108 197.246 3.50238 202.474 6.27376L202.942 5.39023C197.546 2.52961 191.255 1.108 184.084 1.108V2.108ZM202.474 6.27376C207.703 9.046 211.728 12.9467 214.56 17.9811L215.432 17.4909C212.503 12.2853 208.337 8.24999 202.942 5.39023L202.474 6.27376ZM214.564 17.9876C217.457 22.9572 218.912 28.724 218.912 35.304H219.912C219.912 28.572 218.422 22.6268 215.428 17.4844L214.564 17.9876ZM218.912 35.304C218.912 41.8189 217.458 47.5871 214.562 52.6228L215.429 53.1212C218.422 47.9169 219.912 41.9731 219.912 35.304H218.912ZM214.56 52.6269C211.729 57.6597 207.673 61.5604 202.38 64.3331L202.844 65.2189C208.302 62.3596 212.503 58.3243 215.432 53.1171L214.56 52.6269ZM202.378 64.3342C197.149 67.1059 191.056 68.5 184.084 68.5V69.5C191.191 69.5 197.45 68.0781 202.846 65.2178L202.378 64.3342ZM184.084 68.5H158.836V69.5H184.084V68.5ZM159.336 69V1.608H158.336V69H159.336ZM158.836 2.108H184.084V1.108H158.836V2.108ZM183.028 55.292C189.328 55.292 194.3 53.5685 197.874 50.0608L197.174 49.3472C193.835 52.6235 189.143 54.292 183.028 54.292V55.292ZM197.874 50.0608C201.451 46.5502 203.208 41.6065 203.208 35.304H202.208C202.208 41.4175 200.509 46.0738 197.174 49.3472L197.874 50.0608ZM203.208 35.304C203.208 29.001 201.451 24.0278 197.877 20.4544L197.17 21.1616C200.509 24.5002 202.208 29.191 202.208 35.304H203.208ZM197.877 20.4544C194.304 16.881 189.331 15.124 183.028 15.124V16.124C189.141 16.124 193.832 17.8229 197.17 21.1616L197.877 20.4544ZM183.028 15.124H175.252V16.124H183.028V15.124ZM174.752 15.624V54.792H175.752V15.624H174.752ZM175.252 55.292H183.028V54.292H175.252V55.292Z" fill="#0A66C2"/>
</svg>
